<?xml version="1.0" standalone="no"?>
<!DOCTYPE svg PUBLIC "-//W3C//DTD SVG 20010904//EN"
 "http://www.w3.org/TR/2001/REC-SVG-20010904/DTD/svg10.dtd">
<svg version="1.0" xmlns="http://www.w3.org/2000/svg"
 width="500.000000pt" height="500.000000pt" viewBox="0 0 500.000000 500.000000"
 preserveAspectRatio="xMidYMid meet">

<g transform="translate(0.000000,500.000000) scale(0.100000,-0.100000)"
fill="#000000" stroke="none">
<path d="M2065 4557 c-27 -8 -112 -44 -187 -82 -159 -78 -212 -125 -247 -218
-20 -56 -21 -72 -21 -486 0 -489 -9 -445 96 -483 73 -27 245 -31 309 -7 l40
14 5 430 c4 336 8 435 19 454 13 23 16 23 105 18 147 -9 333 -81 501 -193 62
-43 80 -44 69 -6 -15 51 -13 215 3 246 13 25 17 27 25 13 11 -20 59 -22 142
-5 52 10 60 9 84 -9 l27 -20 1 -164 c1 -90 2 -169 3 -175 1 -16 107 -84 129
-84 10 0 28 -10 39 -22 24 -26 117 -191 102 -183 -12 8 -11 5 3 -35 9 -27 8
-35 -3 -44 -12 -9 -15 -46 -14 -191 0 -223 -13 -279 -102 -455 -36 -69 -71
-140 -79 -159 -14 -34 -14 -34 6 -16 20 18 20 18 20 -33 0 -49 2 -53 40 -78
75 -50 236 -68 355 -40 l50 11 8 265 c10 340 4 604 -17 690 -23 91 -114 269
-192 374 -36 48 -104 128 -151 177 -83 87 -86 90 -80 129 11 85 -30 167 -105
206 -32 16 -189 19 -218 4 -15 -8 -36 -2 -97 29 -106 53 -194 88 -283 112 -96
26 -312 35 -385 16z"/>
<path d="M2556 3079 c-28 -17 -45 -34 -40 -39 5 -5 97 -59 204 -120 107 -62
200 -116 206 -121 10 -8 97 31 108 49 2 4 -30 8 -73 8 -138 3 -245 61 -299
163 -18 32 -32 66 -32 75 0 24 -20 20 -74 -15z"/>
<path d="M2115 2816 l-38 -36 7 -88 c4 -48 15 -145 26 -217 10 -71 18 -131 16
-132 -1 -2 -17 2 -35 8 -51 18 -121 6 -148 -26 -35 -40 -32 -122 7 -200 16
-33 35 -67 41 -76 10 -14 -3 -51 -74 -211 -48 -107 -87 -200 -87 -206 0 -6 26
-23 58 -38 31 -15 131 -63 222 -106 275 -133 291 -140 296 -136 2 3 -2 24 -10
49 -8 24 -33 107 -56 184 -23 77 -51 169 -62 203 l-20 64 33 27 c28 24 32 32
26 63 -3 20 -2 52 3 72 5 24 3 57 -6 95 -10 43 -13 126 -11 305 l2 247 53 16
c28 9 52 20 52 24 0 7 -209 131 -241 144 -11 4 -30 -7 -54 -29z"/>
<path d="M2625 2779 c4 -30 10 -55 15 -57 5 -2 6 -10 3 -18 -3 -8 1 -22 8 -31
10 -12 10 -15 2 -9 -15 8 -17 -3 -4 -22 6 -11 15 -9 45 7 20 12 53 30 74 42
20 12 38 22 40 24 3 3 -67 48 -141 90 l-48 27 6 -53z"/>
<path d="M2816 2665 c-81 -47 -157 -85 -166 -85 -10 0 -46 16 -79 36 -49 29
-63 34 -80 25 -41 -22 -43 -43 -22 -199 11 -81 25 -192 31 -247 6 -55 24 -172
39 -260 16 -88 27 -163 24 -168 -2 -4 -35 -32 -72 -61 -93 -75 -101 -83 -101
-115 0 -42 21 -54 84 -49 46 4 68 14 139 62 47 31 88 63 91 71 3 8 -1 40 -10
70 -8 31 -12 60 -10 64 2 3 7 159 10 346 l7 340 110 44 c77 31 106 48 99 55
-7 7 1 20 27 44 l38 33 -32 -16 c-34 -16 -73 -20 -73 -7 0 4 23 25 50 45 28
21 50 42 50 47 0 6 -1 10 -2 10 -2 0 -70 -38 -152 -85z"/>
<path d="M2984 2618 l-19 -23 23 19 c21 18 27 26 19 26 -2 0 -12 -10 -23 -22z"/>
</g>
</svg>
