<svg width="300" height="430"
    xmlns="http://www.w3.org/2000/svg">
    <defs>
        <linearGradient y2="0.84839" x2="0.46807" y1="1.56459" x1="-0.24347" id="Безымянный_градиент_15">
            <stop stop-opacity="0" stop-color="#fff" offset="0.21"/>
            <stop stop-opacity="0.2" stop-color="#fff" offset="1"/>
        </linearGradient>
    </defs>
    <title>Contacts</title>
    <g>
        <title>Layer 1</title>
        <g data-name="Слой 2" id="Слой_2">
            <g data-name="Слой 1" id="Слой_1-2">
                <path id="svg_1" opacity="0.4" fill="#d6d8e5" d="m263.87,314.19l-87.81,-50.56a3.25,3.25 0 0 1 0.13,-5.69l11.05,-5.69a3.25,3.25 0 0 1 3.1,0.07l90.76,52.26a3.24,3.24 0 0 1 -0.13,5.69l-8,4.13a9.48,9.48 0 0 1 -9.1,-0.21z" class="cls-1"/>
                <path id="svg_2" fill="#b1b4c4" d="m269.25,304.67l-74.82,-43.2c-6.34,-3.66 -11.43,-13.47 -11.43,-21.92l0,-208.72c0,-8.45 5.14,-12.33 11.48,-8.67l74.82,43.2c6.34,3.66 11.48,13.47 11.48,21.92l0,208.72c-0.05,8.45 -5.19,12.33 -11.53,8.67z" class="cls-2"/>
                <polygon id="svg_3" fill="#b1b4c4" points="270.53997802734375,308.44000244140625 276.4700012207031,305.44000244140625 270.7799987792969,295.69000244140625 270.53997802734375,308.44000244140625 " class="cls-2"/>
                <polygon id="svg_4" fill="#b1b4c4" points="181.7899932861328,24.23999786376953 187.25,21.37999725341797 186.14999389648438,29.419998168945312 181.7899932861328,24.23999786376953 " class="cls-2"/>
                <path id="svg_5" fill="#616e84" d="m264.48,307.06l-74.82,-43.2c-6.34,-3.66 -11.48,-13.48 -11.48,-21.93l0,-208.71c0,-8.45 5.14,-12.34 11.48,-8.68l74.82,43.2c6.34,3.66 11.48,13.48 11.48,21.93l0,208.71c0.04,8.45 -5.14,12.34 -11.48,8.68z" class="cls-3"/>
                <path id="svg_6" fill="#20232d" d="m275.16,90.2l0,208.71c0,8.46 -5.13,12.34 -11.47,8.68l-29.35,-16.94l-9.12,-5.27l-36.36,-21c-6.34,-3.66 -11.47,-13.47 -11.47,-21.93l0,-208.7c0,-8.46 5.13,-12.33 11.47,-8.68l74.83,43.2c6.31,3.66 11.47,13.47 11.47,21.93z" class="cls-4"/>
                <path id="svg_7" fill="#fff" d="m269.77,88.08l0,203.28c0,5.12 -3.59,7.2 -8,4.63l-23.39,-13.5l-2.07,-1.19l-0.69,-0.41l-5.08,-2.89l-14.64,-8.43l0,0l-6.07,-3.5l-2.44,-1.41l-16.58,-9.57c-4.43,-2.56 -8,-8.79 -8,-13.92l0,-203.31c0,-5.12 3.59,-7.2 8,-4.64l29.19,16.87l0,0.08a13.83,13.83 0 0 0 6.27,10.83c3.46,2 6.26,0.37 6.26,-3.61c0,0 0,-0.06 0,-0.09l29.22,16.87c4.43,2.56 8.02,8.83 8.02,13.91z" class="cls-5"/>
                <ellipse id="svg_8" fill="#2b303f" transform="matrix(0.87, -0.5, 0.5, 0.87, -49.09, 124.78)" ry="3.35" rx="1.94" cy="78.25259" cx="272.4969" class="cls-6"/>
                <path id="svg_9" opacity="0.1" fill="#fff" d="m226.28,57.14a2.21,2.21 0 0 1 -1,-1.72c0,-0.64 0.45,-0.89 1,-0.58a2.2,2.2 0 0 1 1,1.73c-0.01,0.63 -0.45,0.89 -1,0.57z" class="cls-7"/>
                <path id="svg_10" fill="#757b89" d="m278.2,117.66l0,0c-0.61,0.36 -1.11,0 -1.11,-0.83l0,-8.9a2.64,2.64 0 0 1 1.11,-2.11l0,0c0.61,-0.36 1.1,0 1.1,0.83l0,8.9a2.63,2.63 0 0 1 -1.1,2.11z" class="cls-8"/>
                <path id="svg_11" fill="#757b89" d="m278.2,132.24l0,0c-0.61,0.36 -1.11,0 -1.11,-0.83l0,-8.9a2.64,2.64 0 0 1 1.11,-2.11l0,0c0.61,-0.36 1.1,0 1.1,0.83l0,8.9a2.63,2.63 0 0 1 -1.1,2.11z" class="cls-8"/>
                <path id="svg_12" fill="#e9eaf2" d="m255.67,109.53l-60.77,-35.09a7.38,7.38 0 0 1 -3.09,-5.9l0,-16.74c0,-2.27 1.38,-3.32 3.09,-2.33l60.77,35.08a7.43,7.43 0 0 1 3.09,5.91l0,16.73c0,2.28 -1.39,3.32 -3.09,2.34z" class="cls-9"/>
                <polygon id="svg_13" fill="#e9eaf2" points="191.80999755859375,66.71000671386719 191.80999755859375,82.16999816894531 200.38999938964844,77.61000061035156 191.80999755859375,66.71000671386719 " class="cls-9"/>
                <polygon id="svg_14" fill="#d9dae2" points="250,92.58000183105469 204.1699981689453,66.1199951171875 204.1699981689453,61.36000061035156 250,87.82000732421875 250,92.58000183105469 " class="cls-10"/>
                <polygon id="svg_15" fill="#d9dae2" points="226.8300018310547,86.33999633789062 204.1699981689453,73.25 204.1699981689453,68.5 226.8300018310547,81.58000183105469 226.8300018310547,86.33999633789062 " class="cls-10"/>
                <path id="svg_16" fill="#e9eaf2" d="m239.19,185.34l-44.29,-25.57a7.38,7.38 0 0 1 -3.09,-5.9l0,-8.71c0,-2.27 1.38,-3.32 3.09,-2.33l44.29,25.57a7.41,7.41 0 0 1 3.09,5.9l0,8.7c0,2.28 -1.39,3.33 -3.09,2.34z" class="cls-9"/>
                <polygon id="svg_17" fill="#e9eaf2" points="191.80999755859375,151.75 191.80999755859375,167.20999145507812 200.38999938964844,162.64999389648438 191.80999755859375,151.75 " class="cls-9"/>
                <polygon id="svg_18" fill="#d9dae2" points="235.67999267578125,177.67001342773438 201.1300048828125,157.72000122070312 201.1300048828125,152.9600067138672 235.67999267578125,172.91000366210938 235.67999267578125,177.67001342773438 " class="cls-10"/>
                <path id="svg_19" fill="#e9eaf2" d="m216.4,133.43l39.27,22.67c1.7,1 3.09,-0.06 3.09,-2.33l0,-16.77a7.4,7.4 0 0 0 -3.09,-5.9l-39.27,-22.65c-1.71,-1 -3.09,0.07 -3.09,2.34l0,16.74a7.4,7.4 0 0 0 3.09,5.9z" class="cls-9"/>
                <polygon id="svg_20" fill="#e9eaf2" points="258.760009765625,151.94000244140625 258.760009765625,167.39999389648438 250.1699981689453,152.92999267578125 258.760009765625,151.94000244140625 " class="cls-9"/>
                <polygon id="svg_21" fill="#d9dae2" points="221.4199981689453,122.64999389648438 247.36000061035156,137.6300048828125 247.36000061035156,132.8699951171875 221.4199981689453,117.89999389648438 221.4199981689453,122.64999389648438 " class="cls-10"/>
                <polygon id="svg_22" fill="#d9dae2" points="221.4199981689453,129.7899932861328 235.32000732421875,137.82000732421875 235.32000732421875,133.05999755859375 221.4199981689453,125.02999877929688 221.4199981689453,129.7899932861328 " class="cls-10"/>
                <path id="svg_23" fill="#e9eaf2" d="m194.9,209.62l60.41,34.88c1.71,1 3.09,-0.06 3.09,-2.34l0,-16.73a7.4,7.4 0 0 0 -3.09,-5.91l-60.41,-34.88c-1.71,-1 -3.09,0.06 -3.09,2.34l0,16.74a7.4,7.4 0 0 0 3.09,5.9z" class="cls-9"/>
                <polygon id="svg_24" fill="#e9eaf2" points="258.3999938964844,240.33999633789062 258.3999938964844,255.79998779296875 249.82000732421875,241.32998657226562 258.3999938964844,240.33999633789062 " class="cls-9"/>
                <polygon id="svg_25" fill="#d9dae2" points="201.0800018310547,199.510009765625 243.82000732421875,224.19000244140625 243.82000732421875,219.42999267578125 201.0800018310547,194.75 201.0800018310547,199.510009765625 " class="cls-10"/>
                <polygon id="svg_26" fill="#d9dae2" points="201.0800018310547,206.64999389648438 240.89999389648438,229.6400146484375 240.89999389648438,224.8800048828125 201.0800018310547,201.8900146484375 201.0800018310547,206.64999389648438 " class="cls-10"/>
                <path id="svg_27" fill="#e9eaf2" d="m255.67,281l-60.77,-35.1a8,8 0 0 1 -3.61,-6.25l0,-8.32c0,-2.3 1.62,-3.23 3.61,-2.08l60.77,35.08a8,8 0 0 1 3.6,6.25l0,8.32c0,2.3 -1.62,3.23 -3.6,2.1zm-60.77,-50.56c-1.42,-0.82 -2.58,-0.16 -2.58,1.48l0,8.33a5.7,5.7 0 0 0 2.58,4.46l60.77,35.08c1.42,0.82 2.57,0.16 2.57,-1.48l0,-8.31a5.69,5.69 0 0 0 -2.57,-4.46l-60.77,-35.1z" class="cls-9"/>
                <polygon id="svg_28" fill="#e9eaf2" points="197.3000030517578,243.1199951171875 196.27000427246094,242.52999877929688 196.27000427246094,234.60000610351562 197.3000030517578,235.19000244140625 197.3000030517578,243.1199951171875 " class="cls-9"/>
                <g id="Men_2">
                    <ellipse id="svg_29" opacity="0.4" fill="#d6d8e5" ry="19.96" rx="34.58" cy="382.04" cx="52.58" class="cls-1"/>
                    <path fill="#ffcea9" d="m27.22,232.53c-0.39,3.36 -4.39,17.85 -3.53,22.82s14.55,13.27 14.55,13.27l1.9,-8.5l-7.59,-7.43l2.05,-14.08l-7.38,-6.08z" class="cls-14" data-name="&lt;Контур&gt;" id="_Контур_6"/>
                    <path fill="#ededed" d="m37.81,218.24a6,6 0 0 0 -7.62,2.31c-2,3.34 -4.11,14.78 -4.3,16.74c0,0 2.83,3.9 7.07,3.25l4.85,-22.3z" class="cls-17" data-name="&lt;Контур&gt;" id="_Контур_7"/>
                    <path id="svg_30" fill="#2b2a30" d="m53.45,379.85a11.74,11.74 0 0 0 8.86,-1.07c2.14,0.07 13.73,-4.89 15.3,-0.73c1.38,3.65 -3.64,7 -6.32,7.68c-5.85,1.41 -10.18,4.33 -12.53,4.83c-1.75,0.37 -4,0.61 -5.42,-0.77c-1.67,-1.65 -1.53,-7.79 0.11,-9.94z" class="cls-18"/>
                    <path id="svg_31" fill="#0d47a1" d="m58.76,389.55c2.35,-0.5 6.68,-3.42 12.53,-4.83c2.25,-0.55 6.12,-3 6.51,-5.94c0.52,3.36 -4,6.34 -6.51,7c-5.85,1.41 -10.18,4.33 -12.53,4.83c-1.75,0.37 -4,0.61 -5.42,-0.77a3.34,3.34 0 0 1 -0.76,-1.39a7,7 0 0 0 6.18,1.1z" class="cls-19"/>
                    <path id="svg_32" fill="#2b2a30" d="m34.66,371.41a11.74,11.74 0 0 0 8.86,-1.07c2.13,0.07 13.72,-4.89 15.3,-0.73c1.38,3.65 -3.64,7 -6.32,7.68c-5.85,1.42 -10.19,4.33 -12.54,4.83c-1.75,0.37 -4,0.61 -5.41,-0.77c-1.68,-1.65 -1.55,-7.76 0.11,-9.94z" class="cls-18"/>
                    <path id="svg_33" fill="#0d47a1" d="m40,381.11c2.35,-0.5 6.69,-3.42 12.54,-4.83c2.24,-0.55 6.12,-3 6.51,-5.94c0.52,3.36 -4,6.34 -6.51,7c-5.85,1.42 -10.19,4.33 -12.54,4.83c-1.75,0.37 -4,0.61 -5.41,-0.77a3.47,3.47 0 0 1 -0.77,-1.39a7,7 0 0 0 6.18,1.1z" class="cls-19"/>
                    <path fill="#0d47a1" d="m34.43,339.93a70,70 0 0 1 2.67,-12.69s-0.79,-10.95 -1.19,-21.34c-0.46,-11.78 -4.55,-22.15 -1.32,-31.56l36.41,8.09s-2.2,47 -2.69,52.67a105.84,105.84 0 0 1 -1.63,13.19c-1.66,9.12 -4.36,30.81 -4.36,30.81c-3.84,2.24 -8.89,1 -8.89,1s0.28,-27.44 0.53,-34c0.3,-8 0.54,-7.41 0.54,-7.41l-1.2,-20l-0.78,-9.94s-1,7.3 -1.66,13.82c-0.58,5.68 -2,10.82 -3.48,21.4c-1.33,9.18 -3.49,27.62 -3.49,27.62c-3.84,2.23 -9.06,0.38 -9.06,0.38s-1.44,-24.08 -0.4,-32.04z" class="cls-20" data-name="&lt;Контур&gt;" id="_Контур_8"/>
                    <path fill="#ffcea9" d="m39.74,218.44c2.77,0.14 4.83,0.85 5.17,0a36.35,36.35 0 0 0 0.64,-4.33c-0.32,-0.81 -0.6,-1.67 -0.6,-1.67c-3.47,-2.14 -4.57,-5.9 -5,-10.27c-0.78,-7.48 3.26,-14 10.74,-14.81c7,-0.74 12.21,4.21 13.59,11c0.74,3.35 2.22,9.68 0.22,15.19c-1.12,3.08 -2.56,5.53 -4,6a36.65,36.65 0 0 1 -4.16,-0.37l0,0s-0.37,2.07 -0.63,3.41s-0.15,2 2.5,3.67s-4,5 -8.37,4.67s-9.26,-3 -10.61,-5.78c-1.52,-3.1 -1.39,-6.8 0.51,-6.71z" class="cls-14" data-name="&lt;Контур&gt;" id="_Контур_9"/>
                    <path fill="#f4f4f4" d="m43.74,218.85c-0.76,1.92 1.19,4.26 6.39,5.89s5.67,-0.47 5.67,-0.47s7.62,3.48 10.1,5.21c3.13,2.18 4.51,8.5 4.93,19.16c0.49,12.33 0.53,30.63 0.12,33.79c0,0 -5.83,5.81 -13.3,5.2s-20,-7.22 -23.07,-12.32c0.08,-10.82 1.35,-12.58 -0.4,-18.81c-4,-14.26 -6.12,-20.1 -4.18,-29.58c1.61,-7.81 3.86,-8.78 7,-8.71a65.29,65.29 0 0 1 6.74,0.64z" class="cls-15" data-name="&lt;Контур&gt;" id="_Контур_10"/>
                    <path fill="#ffcea9" d="m82.56,258.84c-6.12,1.54 -7.56,-2.32 -8.37,-5.52c-1.94,-7.75 -3,-14.74 -4.45,-19.14c-1.71,-5.18 -3.5,-6 -6,-7c-3,-1.18 -5.5,1.32 -4.52,7.92c1.17,7.8 2.7,13.28 5.61,22.52c0.77,2.41 2.48,6.69 5,8.76c3.16,2.56 7.92,2.45 15.12,0.66c3.07,-0.77 6.44,-2.6 12.25,-5.31c1.58,-0.73 2.8,-1.23 5.8,-2.63a20.43,20.43 0 0 0 7.68,-6c1.57,-2.27 1.29,-3.72 1,-4.23s-0.63,-0.13 -1.47,0.82a16.58,16.58 0 0 1 -4.41,4.08s1.94,-2 3,-3.3a16.72,16.72 0 0 0 2.32,-3.78c0.55,-1.33 -0.59,-3.13 -1.46,-2.18s-1.28,1.9 -2.86,3.8a16.8,16.8 0 0 1 -2.89,2.69a30.65,30.65 0 0 0 2.61,-4.21c1,-2.05 -2.35,-1 -4.27,1c-1.4,1.45 -2.59,2.29 -2.63,1.89s-2.76,2.53 -4.15,4s-7.08,3.69 -12.91,5.16z" class="cls-14" data-name="&lt;Контур&gt;" id="_Контур_11"/>
                    <path fill="#ededed" d="m61.45,226.11c4.09,-0.61 7,1.23 8.79,7.43s3.07,11.29 3.07,11.29a11.12,11.12 0 0 1 -6.85,4.55c-4.9,1.18 -6.66,-1.15 -6.66,-1.15s-1.36,-6.5 -2.2,-10.92s-1.21,-10.46 3.85,-11.2z" class="cls-17" data-name="&lt;Контур&gt;" id="_Контур_12"/>
                    <path id="svg_34" fill="#2b2a30" d="m64,197.4s6.46,-9.83 -7.54,-11.83c-10.1,-1.44 -16.59,5.05 -17.34,12.09c-0.72,6.73 3.42,13.71 6.42,16.49c1.46,0.52 4.6,0.82 8.73,-1.06a50,50 0 0 0 0.19,-5.51s-4.92,-10.36 9.54,-10.18z" class="cls-18"/>
                </g>
                <path id="svg_35" fill="#ffcea9" d="m96.82,251.11s-1.59,-2.89 -0.58,-3.61s2.45,2 2.74,3.05s-0.11,-0.32 -0.11,-0.32s-1.09,-3.27 -0.38,-3.9s1.66,0.77 2.61,2.82s0.23,-0.17 0.23,-0.17s-1.57,-3.28 -0.9,-3.74c0.9,-0.6 2.38,1.34 3.26,3.09s-1.18,3.83 -1.18,3.83l-5.69,-1.05z" class="cls-14"/>
                <g id="Mobile">
                    <path id="svg_36" fill="#b1b4c4" d="m99.89,256.28l-5.89,-3.43c-0.51,-0.29 -0.44,-0.79 0.14,-1.13l14.34,-8.28a2.19,2.19 0 0 1 2,-0.08l5.94,3.43c0.5,0.29 0.44,0.8 -0.14,1.13l-14.43,8.28a2.16,2.16 0 0 1 -1.96,0.08z" class="cls-2"/>
                    <polygon id="svg_37" fill="#b1b4c4" points="93.61000061035156,252.3599853515625 93.61000061035156,251.80999755859375 94.25,252.04998779296875 93.61000061035156,252.3599853515625 " class="cls-2"/>
                    <polygon id="svg_38" fill="#b1b4c4" points="116.66999816894531,247.260009765625 116.66999816894531,246.739990234375 116.16000366210938,247.05999755859375 116.66999816894531,247.260009765625 " class="cls-2"/>
                    <path id="svg_39" fill="#616e84" d="m99.89,255.82l-5.89,-3.43c-0.51,-0.29 -0.44,-0.8 0.14,-1.13l14.29,-8.26a2.16,2.16 0 0 1 2,-0.08l5.94,3.43c0.5,0.29 0.44,0.79 -0.14,1.13l-14.34,8.28a2.19,2.19 0 0 1 -2,0.06z" class="cls-3"/>
                    <ellipse id="svg_40" fill="#757b89" transform="matrix(0.87, -0.5, 0.5, 0.87, -165.24, 85.34)" ry="0.11" rx="0.06" cy="275.26259" cx="140.8269" class="cls-8"/>
                    <ellipse id="svg_41" fill="#757b89" transform="rotate(-30, -147.29, -12.5)" ry="0.11" rx="0.06" cy="338.66" cx="-70.38999" class="cls-8"/>
                    <ellipse id="svg_42" fill="#757b89" transform="rotate(-30, -147.33, -12.33)" ry="0.11" rx="0.06" cy="339" cx="-70.15" class="cls-8"/>
                    <ellipse id="svg_43" fill="#757b89" transform="rotate(-30, -147.37, -12.17)" ry="0.11" rx="0.06" cy="339.32" cx="-69.9" class="cls-8"/>
                    <ellipse id="svg_44" fill="#757b89" transform="rotate(-30, -147.75, -10.75)" ry="0.11" rx="0.06" cy="342.16" cx="-67.83" class="cls-8"/>
                    <ellipse id="svg_45" fill="#757b89" transform="rotate(-30, -147.8, -10.59)" ry="0.11" rx="0.06" cy="342.49" cx="-67.59" class="cls-8"/>
                    <ellipse id="svg_46" fill="#757b89" transform="rotate(-30, -147.84, -10.42)" ry="0.11" rx="0.06" cy="342.82" cx="-67.35" class="cls-8"/>
                    <ellipse id="svg_47" fill="#757b89" transform="rotate(-30, -147.89, -10.26)" ry="0.11" rx="0.06" cy="343.15" cx="-67.11" class="cls-8"/>
                    <path id="svg_48" fill="#757b89" d="m97.09,254.55l-0.79,-0.45a0.23,0.23 0 0 1 -0.09,-0.18l0,0c0,-0.06 0,-0.09 0.09,-0.06l0.79,0.45a0.21,0.21 0 0 1 0.09,0.17l0,0c0,0.07 -0.04,0.1 -0.09,0.07z" class="cls-8"/>
                    <path id="svg_49" fill="#757b89" d="m114.87,248.56l-0.73,0.42s-0.08,0 -0.08,-0.06l0,0a0.23,0.23 0 0 1 0.08,-0.16l0.73,-0.42s0.09,0 0.09,0.06l0,0a0.19,0.19 0 0 1 -0.09,0.16z" class="cls-8"/>
                    <path id="svg_50" fill="#757b89" d="m113.75,249.21l-0.73,0.42s-0.08,0 -0.08,-0.06l0,0a0.19,0.19 0 0 1 0.08,-0.16l0.73,-0.42s0.09,0 0.09,0.06l0,0a0.2,0.2 0 0 1 -0.09,0.16z" class="cls-8"/>
                    <path id="svg_51" fill="#20232d" d="m99.89,255.74l-5.89,-3.43c-0.51,-0.29 -0.44,-0.8 0.14,-1.14l14.34,-8.28a2.19,2.19 0 0 1 2,-0.08l5.94,3.43c0.5,0.29 0.44,0.8 -0.14,1.13l-14.34,8.28a2.17,2.17 0 0 1 -2.05,0.09z" class="cls-4"/>
                    <path id="svg_52" fill="#2b303f" d="m115.69,246.38l-2.31,-1.38l0,0a1.08,1.08 0 0 1 -1,0c-0.28,-0.16 -0.28,-0.41 0,-0.57l0,0l-2.31,-1.34a1.44,1.44 0 0 0 -1.28,0l-14,8.06c-0.35,0.21 -0.35,0.54 0,0.74l5.63,3.25a1.42,1.42 0 0 0 1.27,0l14,-8.07c0.36,-0.16 0.36,-0.49 0,-0.69z" class="cls-6"/>
                    <path id="svg_53" fill="url(#Безымянный_градиент_15)" opacity="0.5" d="m115.69,246.38l-2.31,-1.38l0,0a1.08,1.08 0 0 1 -1,0c-0.28,-0.16 -0.28,-0.41 0,-0.57l0,0l-2.31,-1.34a1.44,1.44 0 0 0 -1.28,0l-14,8.06c-0.35,0.21 -0.35,0.54 0,0.74l5.63,3.25a1.42,1.42 0 0 0 1.27,0l14,-8.07c0.36,-0.16 0.36,-0.49 0,-0.69z" class="cls-21"/>
                    <ellipse id="svg_54" fill="#2b303f" ry="0.15" rx="0.27" cy="244.84" cx="112.72" class="cls-6"/>
                    <path id="svg_55" opacity="0.1" fill="#fff" d="m112.64,244.89s0,-0.07 0,-0.09a0.15,0.15 0 0 1 0.16,0s0,0.06 0,0.09a0.22,0.22 0 0 1 -0.16,0z" class="cls-7"/>
                </g>
                <path id="svg_56" fill="#ffcea9" d="m109.12,254.91s3.14,-2.83 3,-6.58c-0.19,-2.61 -1.77,-0.73 -1.77,-0.73l-1.59,2.88a8.44,8.44 0 0 1 -3,2.52a33.09,33.09 0 0 0 -3.32,0.49c-1.95,0.38 -3.89,2.82 -3.89,2.82l2.45,1.93l8.12,-3.33z" class="cls-14"/>
                <path id="svg_57" fill="#b1b4c4" d="m94.55,122.38l-57.81,-33.38a4.49,4.49 0 0 0 -3.85,-0.6l0,0a3,3 0 0 0 -0.69,0.4l-6.45,3.69l5,5.87l0,24.1a13.29,13.29 0 0 0 6,10.41l18,11.31l4.89,11.21l-5.15,8.73l7.17,-4.1l6.81,-7.91l21.73,11.77l1.17,7l7.32,-4.18l0.2,-0.12l0.07,0l0,0a4.35,4.35 0 0 0 1.6,-3.79l0,-30a13.29,13.29 0 0 0 -6.01,-10.41z" class="cls-22"/>
                <path id="svg_58" fill="#e9eaf2" d="m87.39,126.48l-57.81,-33.37c-3.32,-1.92 -6,-0.37 -6,3.46l0,30a13.29,13.29 0 0 0 6,10.41l18,11.32l6.91,15.83l6.81,-7.91l26.08,14.14c3.32,1.91 6,0.36 6,-3.47l0,-30a13.29,13.29 0 0 0 -5.99,-10.41z" class="cls-23"/>
                <ellipse id="svg_59" fill="#fff" transform="rotate(-30, 48.8, 80.81)" ry="5.87" rx="3.39" cy="112.74" cx="20.74" class="cls-5"/>
                <ellipse id="svg_60" fill="#fff" transform="matrix(0.87, -0.5, 0.5, 0.87, 28.14, 188.73)" ry="5.87" rx="3.39" cy="-33.88741" cx="52.8069" class="cls-5"/>
                <ellipse id="svg_61" fill="#fff" transform="rotate(-30, 43.49, 100.65)" ry="5.87" rx="3.39" cy="152.41999" cx="48.9" class="cls-5"/>
            </g>
        </g>
    </g>
</svg>