<svg xmlns="http://www.w3.org/2000/svg" xmlns:xlink="http://www.w3.org/1999/xlink" viewBox="0 0 410.07 500">
    <defs>
        <style>
            .cls-1 {
                fill: #d6d8e5;
                opacity: 0.4;
            }

            .cls-2 {
                fill: #b1b4c4;
            }

            .cls-3 {
                fill: #616e84;
            }

            .cls-4 {
                fill: #20232d;
            }

            .cls-5,
            .cls-7 {
                fill: #fff;
            }

            .cls-6 {
                fill: #2b303f;
            }

            .cls-7 {
                opacity: 0.1;
            }

            .cls-8 {
                fill: #757b89;
            }

            .cls-9 {
                fill: #e9eaf2;
            }

            .cls-10 {
                fill: #d9dae2;
            }

            .cls-11 {
                fill: #38226d;
            }

            .cls-12 {
                fill: #9c73ff;
            }

            .cls-13 {
                fill: #8c50ff;
            }

            .cls-14 {
                fill: #ffcea9;
            }

            .cls-15 {
                fill: #f4f4f4;
            }

            .cls-16 {
                fill: #3a2c6d;
            }

            .cls-17 {
                fill: #ededed;
            }

            .cls-18 {
                fill: #2b2a30;
            }

            .cls-19 {
                fill: #0d47a1;
            }

            .cls-20 {
                fill: #0d47a1;
            }

            .cls-21 {
                opacity: 0.5;
                fill: url(#Безымянный_градиент_15);
            }

            .cls-22 {
                fill: #b1b4c4;
            }

            .cls-23 {
                fill: #e9eaf2;
            }

            .cls-24 {
                opacity: 0.2;
            }

            .cls-25 {
                fill: #dd990e;
            }

            .cls-26 {
                fill: #f9cb07;
            }

            .cls-27 {
                fill: #cc8b09;
            }

            .cls-28 {
                fill: #4399ff;
            }

            .cls-29 {
                fill: #70b6fc;
            }

            .cls-30 {
                fill: #efbd9c;
            }
        </style>
        <linearGradient id="Безымянный_градиент_15" x1="-2093.15" y1="3284.72" x2="-2093.15" y2="3269.47"
            gradientTransform="matrix(0.87, 0.5, -1, 0.58, 5177.07, -498.3)" gradientUnits="userSpaceOnUse">
            <stop offset="0.21" stop-color="#fff" stop-opacity="0" />
            <stop offset="1" stop-color="#fff" stop-opacity="0.2" />
        </linearGradient>
    </defs>
    <title>Contacts</title>
    <g id="Слой_2" data-name="Слой 2">
        <g id="Слой_1-2" data-name="Слой 1">
            <path class="cls-1"
                d="M245.87,412.19l-87.81-50.56a3.25,3.25,0,0,1,.13-5.69l11.05-5.69a3.25,3.25,0,0,1,3.1.07l90.76,52.26a3.24,3.24,0,0,1-.13,5.69l-8,4.13A9.48,9.48,0,0,1,245.87,412.19Z" />
            <path class="cls-2"
                d="M251.25,402.67l-74.82-43.2C170.09,355.81,165,346,165,337.55V128.83c0-8.45,5.14-12.33,11.48-8.67l74.82,43.2c6.34,3.66,11.48,13.47,11.48,21.92V394C262.73,402.45,257.59,406.33,251.25,402.67Z" />
            <polygon class="cls-2" points="252.54 406.44 258.47 403.44 252.78 393.69 252.54 406.44" />
            <polygon class="cls-2" points="163.79 122.24 169.25 119.38 168.15 127.42 163.79 122.24" />
            <path class="cls-3"
                d="M246.48,405.06l-74.82-43.2c-6.34-3.66-11.48-13.48-11.48-21.93V131.22c0-8.45,5.14-12.34,11.48-8.68l74.82,43.2c6.34,3.66,11.48,13.48,11.48,21.93V396.38C258,404.83,252.82,408.72,246.48,405.06Z" />
            <path class="cls-4"
                d="M257.16,188.2V396.91c0,8.46-5.13,12.34-11.47,8.68l-29.35-16.94-9.12-5.27-36.36-21c-6.34-3.66-11.47-13.47-11.47-21.93V131.75c0-8.46,5.13-12.33,11.47-8.68l74.83,43.2C252,169.93,257.16,179.74,257.16,188.2Z" />
            <path class="cls-5"
                d="M251.77,186.08V389.36c0,5.12-3.59,7.2-8,4.63l-23.39-13.5-2.07-1.19-.69-.41L212.54,376l-14.64-8.43h0l-6.07-3.5-2.44-1.41-16.58-9.57c-4.43-2.56-8-8.79-8-13.92V135.86c0-5.12,3.59-7.2,8-4.64L202,148.09v.08A13.83,13.83,0,0,0,208.27,159c3.46,2,6.26.37,6.26-3.61,0,0,0-.06,0-.09l29.22,16.87C248.18,174.73,251.77,181,251.77,186.08Z" />
            <ellipse class="cls-6" cx="208.28" cy="153.99" rx="1.94" ry="3.35"
                transform="matrix(0.87, -0.5, 0.5, 0.87, -49.09, 124.78)" />
            <path class="cls-7"
                d="M208.28,155.14a2.21,2.21,0,0,1-1-1.72c0-.64.45-.89,1-.58a2.2,2.2,0,0,1,1,1.73C209.27,155.2,208.83,155.46,208.28,155.14Z" />
            <path class="cls-8"
                d="M260.2,215.66h0c-.61.36-1.11,0-1.11-.83v-8.9a2.64,2.64,0,0,1,1.11-2.11h0c.61-.36,1.1,0,1.1.83v8.9A2.63,2.63,0,0,1,260.2,215.66Z" />
            <path class="cls-8"
                d="M260.2,230.24h0c-.61.36-1.11,0-1.11-.83v-8.9a2.64,2.64,0,0,1,1.11-2.11h0c.61-.36,1.1,0,1.1.83v8.9A2.63,2.63,0,0,1,260.2,230.24Z" />
            <path class="cls-9"
                d="M237.67,207.53,176.9,172.44a7.38,7.38,0,0,1-3.09-5.9V149.8c0-2.27,1.38-3.32,3.09-2.33l60.77,35.08a7.43,7.43,0,0,1,3.09,5.91v16.73C240.76,207.47,239.37,208.51,237.67,207.53Z" />
            <polygon class="cls-9" points="173.81 164.71 173.81 180.17 182.39 175.61 173.81 164.71" />
            <polygon class="cls-10" points="232 190.58 186.17 164.12 186.17 159.36 232 185.82 232 190.58" />
            <polygon class="cls-10" points="208.83 184.34 186.17 171.25 186.17 166.5 208.83 179.58 208.83 184.34" />
            <path class="cls-9"
                d="M221.19,283.34,176.9,257.77a7.38,7.38,0,0,1-3.09-5.9v-8.71c0-2.27,1.38-3.32,3.09-2.33l44.29,25.57a7.41,7.41,0,0,1,3.09,5.9V281C224.28,283.28,222.89,284.33,221.19,283.34Z" />
            <polygon class="cls-9" points="173.81 249.75 173.81 265.21 182.39 260.65 173.81 249.75" />
            <polygon class="cls-10" points="217.68 275.67 183.13 255.72 183.13 250.96 217.68 270.91 217.68 275.67" />
            <path class="cls-9"
                d="M198.4,231.43l39.27,22.67c1.7,1,3.09-.06,3.09-2.33V235a7.4,7.4,0,0,0-3.09-5.9L198.4,206.45c-1.71-1-3.09.07-3.09,2.34v16.74A7.4,7.4,0,0,0,198.4,231.43Z" />
            <polygon class="cls-9" points="240.76 249.94 240.76 265.4 232.17 250.93 240.76 249.94" />
            <polygon class="cls-10" points="203.42 220.65 229.36 235.63 229.36 230.87 203.42 215.9 203.42 220.65" />
            <polygon class="cls-10" points="203.42 227.79 217.32 235.82 217.32 231.06 203.42 223.03 203.42 227.79" />
            <path class="cls-9"
                d="M176.9,307.62l60.41,34.88c1.71,1,3.09-.06,3.09-2.34V323.43a7.4,7.4,0,0,0-3.09-5.91L176.9,282.64c-1.71-1-3.09.06-3.09,2.34v16.74A7.4,7.4,0,0,0,176.9,307.62Z" />
            <polygon class="cls-9" points="240.4 338.34 240.4 353.8 231.82 339.33 240.4 338.34" />
            <polygon class="cls-10" points="183.08 297.51 225.82 322.19 225.82 317.43 183.08 292.75 183.08 297.51" />
            <polygon class="cls-10" points="183.08 304.65 222.9 327.64 222.9 322.88 183.08 299.89 183.08 304.65" />
            <path class="cls-9"
                d="M237.67,379,176.9,343.9a8,8,0,0,1-3.61-6.25v-8.32c0-2.3,1.62-3.23,3.61-2.08l60.77,35.08a8,8,0,0,1,3.6,6.25v8.32C241.27,379.2,239.65,380.13,237.67,379ZM176.9,328.44c-1.42-.82-2.58-.16-2.58,1.48v8.33a5.7,5.7,0,0,0,2.58,4.46l60.77,35.08c1.42.82,2.57.16,2.57-1.48V368a5.69,5.69,0,0,0-2.57-4.46Z" />
            <polygon class="cls-9" points="179.3 341.12 178.27 340.53 178.27 332.6 179.3 333.19 179.3 341.12" />
            <g id="Men_2">
                <ellipse class="cls-1" cx="34.58" cy="480.04" rx="34.58" ry="19.96" />
                <path id="_Контур_6" data-name="&lt;Контур&gt;" class="cls-14"
                    d="M9.22,330.53c-.39,3.36-4.39,17.85-3.53,22.82s14.55,13.27,14.55,13.27l1.9-8.5-7.59-7.43,2.05-14.08Z" />
                <path id="_Контур_7" data-name="&lt;Контур&gt;" class="cls-17"
                    d="M19.81,316.24a6,6,0,0,0-7.62,2.31c-2,3.34-4.11,14.78-4.3,16.74,0,0,2.83,3.9,7.07,3.25Z" />
                <path class="cls-18"
                    d="M35.45,477.85a11.74,11.74,0,0,0,8.86-1.07c2.14.07,13.73-4.89,15.3-.73,1.38,3.65-3.64,7-6.32,7.68-5.85,1.41-10.18,4.33-12.53,4.83-1.75.37-4,.61-5.42-.77C33.67,486.14,33.81,480,35.45,477.85Z" />
                <path class="cls-19"
                    d="M40.76,487.55c2.35-.5,6.68-3.42,12.53-4.83,2.25-.55,6.12-3,6.51-5.94.52,3.36-4,6.34-6.51,7-5.85,1.41-10.18,4.33-12.53,4.83-1.75.37-4,.61-5.42-.77a3.34,3.34,0,0,1-.76-1.39A7,7,0,0,0,40.76,487.55Z" />
                <path class="cls-18"
                    d="M16.66,469.41a11.74,11.74,0,0,0,8.86-1.07c2.13.07,13.72-4.89,15.3-.73,1.38,3.65-3.64,7-6.32,7.68-5.85,1.42-10.19,4.33-12.54,4.83-1.75.37-4,.61-5.41-.77C14.87,477.7,15,471.59,16.66,469.41Z" />
                <path class="cls-19"
                    d="M22,479.11c2.35-.5,6.69-3.42,12.54-4.83,2.24-.55,6.12-3,6.51-5.94.52,3.36-4,6.34-6.51,7-5.85,1.42-10.19,4.33-12.54,4.83-1.75.37-4,.61-5.41-.77a3.47,3.47,0,0,1-.77-1.39A7,7,0,0,0,22,479.11Z" />
                <path id="_Контур_8" data-name="&lt;Контур&gt;" class="cls-20"
                    d="M16.43,437.93a70,70,0,0,1,2.67-12.69s-.79-10.95-1.19-21.34c-.46-11.78-4.55-22.15-1.32-31.56L53,380.43s-2.2,47-2.69,52.67a105.84,105.84,0,0,1-1.63,13.19c-1.66,9.12-4.36,30.81-4.36,30.81-3.84,2.24-8.89,1-8.89,1s.28-27.44.53-34c.3-8,.54-7.41.54-7.41l-1.2-20-.78-9.94s-1,7.3-1.66,13.82c-.58,5.68-2,10.82-3.48,21.4-1.33,9.18-3.49,27.62-3.49,27.62-3.84,2.23-9.06.38-9.06.38S15.39,445.89,16.43,437.93Z" />
                <path id="_Контур_9" data-name="&lt;Контур&gt;" class="cls-14"
                    d="M21.74,316.44c2.77.14,4.83.85,5.17,0a36.35,36.35,0,0,0,.64-4.33c-.32-.81-.6-1.67-.6-1.67-3.47-2.14-4.57-5.9-5-10.27-.78-7.48,3.26-14,10.74-14.81,7-.74,12.21,4.21,13.59,11,.74,3.35,2.22,9.68.22,15.19-1.12,3.08-2.56,5.53-4,6a36.65,36.65,0,0,1-4.16-.37h0s-.37,2.07-.63,3.41-.15,2,2.5,3.67-4,5-8.37,4.67-9.26-3-10.61-5.78C19.71,320.05,19.84,316.35,21.74,316.44Z" />
                <path id="_Контур_10" data-name="&lt;Контур&gt;" class="cls-15"
                    d="M25.74,316.85c-.76,1.92,1.19,4.26,6.39,5.89s5.67-.47,5.67-.47,7.62,3.48,10.1,5.21c3.13,2.18,4.51,8.5,4.93,19.16.49,12.33.53,30.63.12,33.79,0,0-5.83,5.81-13.3,5.2s-20-7.22-23.07-12.32c.08-10.82,1.35-12.58-.4-18.81-4-14.26-6.12-20.1-4.18-29.58,1.61-7.81,3.86-8.78,7-8.71A65.29,65.29,0,0,1,25.74,316.85Z" />
                <path id="_Контур_11" data-name="&lt;Контур&gt;" class="cls-14"
                    d="M64.56,356.84c-6.12,1.54-7.56-2.32-8.37-5.52-1.94-7.75-3-14.74-4.45-19.14-1.71-5.18-3.5-6-6-7-3-1.18-5.5,1.32-4.52,7.92,1.17,7.8,2.7,13.28,5.61,22.52.77,2.41,2.48,6.69,5,8.76,3.16,2.56,7.92,2.45,15.12.66,3.07-.77,6.44-2.6,12.25-5.31C80.78,359,82,358.5,85,357.1a20.43,20.43,0,0,0,7.68-6c1.57-2.27,1.29-3.72,1-4.23s-.63-.13-1.47.82a16.58,16.58,0,0,1-4.41,4.08s1.94-2,3-3.3a16.72,16.72,0,0,0,2.32-3.78c.55-1.33-.59-3.13-1.46-2.18s-1.28,1.9-2.86,3.8A16.8,16.8,0,0,1,85.91,349a30.65,30.65,0,0,0,2.61-4.21c1-2.05-2.35-1-4.27,1-1.4,1.45-2.59,2.29-2.63,1.89s-2.76,2.53-4.15,4S70.39,355.37,64.56,356.84Z" />
                <path id="_Контур_12" data-name="&lt;Контур&gt;" class="cls-17"
                    d="M43.45,324.11c4.09-.61,7,1.23,8.79,7.43s3.07,11.29,3.07,11.29a11.12,11.12,0,0,1-6.85,4.55c-4.9,1.18-6.66-1.15-6.66-1.15s-1.36-6.5-2.2-10.92S38.39,324.85,43.45,324.11Z" />
                <path class="cls-18"
                    d="M46,295.4s6.46-9.83-7.54-11.83c-10.1-1.44-16.59,5.05-17.34,12.09-.72,6.73,3.42,13.71,6.42,16.49,1.46.52,4.6.82,8.73-1.06a50,50,0,0,0,.19-5.51S31.54,295.22,46,295.4Z" />
            </g>
            <path class="cls-14"
                d="M78.82,349.11s-1.59-2.89-.58-3.61,2.45,2,2.74,3.05-.11-.32-.11-.32-1.09-3.27-.38-3.9,1.66.77,2.61,2.82.23-.17.23-.17-1.57-3.28-.9-3.74c.9-.6,2.38,1.34,3.26,3.09s-1.18,3.83-1.18,3.83Z" />
            <g id="Mobile">
                <path class="cls-2"
                    d="M81.89,354.28,76,350.85c-.51-.29-.44-.79.14-1.13l14.34-8.28a2.19,2.19,0,0,1,2-.08l5.94,3.43c.5.29.44.8-.14,1.13L83.85,354.2A2.16,2.16,0,0,1,81.89,354.28Z" />
                <polygon class="cls-2" points="75.61 350.36 75.61 349.81 76.25 350.05 75.61 350.36" />
                <polygon class="cls-2" points="98.67 345.26 98.67 344.74 98.16 345.06 98.67 345.26" />
                <path class="cls-3"
                    d="M81.89,353.82,76,350.39c-.51-.29-.44-.8.14-1.13L90.43,341a2.16,2.16,0,0,1,2-.08l5.94,3.43c.5.29.44.79-.14,1.13l-14.34,8.28A2.19,2.19,0,0,1,81.89,353.82Z" />
                <ellipse class="cls-8" cx="76.61" cy="351" rx="0.06" ry="0.11"
                    transform="matrix(0.87, -0.5, 0.5, 0.87, -165.24, 85.34)" />
                <ellipse class="cls-8" cx="76.9" cy="351.16" rx="0.06" ry="0.11"
                    transform="translate(-165.29 85.5) rotate(-30)" />
                <ellipse class="cls-8" cx="77.18" cy="351.33" rx="0.06" ry="0.11"
                    transform="translate(-165.33 85.67) rotate(-30)" />
                <ellipse class="cls-8" cx="77.47" cy="351.49" rx="0.06" ry="0.11"
                    transform="translate(-165.37 85.83) rotate(-30)" />
                <ellipse class="cls-8" cx="79.92" cy="352.91" rx="0.06" ry="0.11"
                    transform="translate(-165.75 87.25) rotate(-30)" />
                <ellipse class="cls-8" cx="80.21" cy="353.08" rx="0.06" ry="0.11"
                    transform="translate(-165.8 87.41) rotate(-30)" />
                <ellipse class="cls-8" cx="80.49" cy="353.24" rx="0.06" ry="0.11"
                    transform="translate(-165.84 87.58) rotate(-30)" />
                <ellipse class="cls-8" cx="80.78" cy="353.41" rx="0.06" ry="0.11"
                    transform="translate(-165.89 87.74) rotate(-30)" />
                <path class="cls-8"
                    d="M79.09,352.55l-.79-.45a.23.23,0,0,1-.09-.18h0c0-.06,0-.09.09-.06l.79.45a.21.21,0,0,1,.09.17h0C79.18,352.55,79.14,352.58,79.09,352.55Z" />
                <path class="cls-8"
                    d="M96.87,346.56l-.73.42s-.08,0-.08-.06h0a.23.23,0,0,1,.08-.16l.73-.42s.09,0,.09.06h0A.19.19,0,0,1,96.87,346.56Z" />
                <path class="cls-8"
                    d="M95.75,347.21l-.73.42s-.08,0-.08-.06h0a.19.19,0,0,1,.08-.16l.73-.42s.09,0,.09.06h0A.2.2,0,0,1,95.75,347.21Z" />
                <path class="cls-4"
                    d="M81.89,353.74,76,350.31c-.51-.29-.44-.8.14-1.14l14.34-8.28a2.19,2.19,0,0,1,2-.08l5.94,3.43c.5.29.44.8-.14,1.13l-14.34,8.28A2.17,2.17,0,0,1,81.89,353.74Z" />
                <path class="cls-6"
                    d="M97.69,344.38,95.38,343h0a1.08,1.08,0,0,1-1,0c-.28-.16-.28-.41,0-.57h0l-2.31-1.34a1.44,1.44,0,0,0-1.28,0l-14,8.06c-.35.21-.35.54,0,.74l5.63,3.25a1.42,1.42,0,0,0,1.27,0l14-8.07C98.05,344.91,98.05,344.58,97.69,344.38Z" />
                <path class="cls-21"
                    d="M97.69,344.38,95.38,343h0a1.08,1.08,0,0,1-1,0c-.28-.16-.28-.41,0-.57h0l-2.31-1.34a1.44,1.44,0,0,0-1.28,0l-14,8.06c-.35.21-.35.54,0,.74l5.63,3.25a1.42,1.42,0,0,0,1.27,0l14-8.07C98.05,344.91,98.05,344.58,97.69,344.38Z" />
                <ellipse class="cls-6" cx="94.72" cy="342.84" rx="0.27" ry="0.15" />
                <path class="cls-7"
                    d="M94.64,342.89s0-.07,0-.09a.15.15,0,0,1,.16,0s0,.06,0,.09A.22.22,0,0,1,94.64,342.89Z" />
            </g>
            <path class="cls-14"
                d="M91.12,352.91s3.14-2.83,3-6.58c-.19-2.61-1.77-.73-1.77-.73l-1.59,2.88a8.44,8.44,0,0,1-3,2.52,33.09,33.09,0,0,0-3.32.49c-1.95.38-3.89,2.82-3.89,2.82L83,356.24Z" />
            <path class="cls-22"
                d="M76.55,220.38,18.74,187a4.49,4.49,0,0,0-3.85-.6h0a3,3,0,0,0-.69.4l-6.45,3.69,5,5.87v24.1a13.29,13.29,0,0,0,6,10.41l18,11.31,4.89,11.21-5.15,8.73,7.17-4.1,6.81-7.91L72.2,261.88l1.17,7,7.32-4.18.2-.12.07,0h0a4.35,4.35,0,0,0,1.6-3.79v-30A13.29,13.29,0,0,0,76.55,220.38Z" />
            <path class="cls-23"
                d="M69.39,224.48,11.58,191.11c-3.32-1.92-6-.37-6,3.46v30a13.29,13.29,0,0,0,6,10.41l18,11.32,6.91,15.83,6.81-7.91,26.08,14.14c3.32,1.91,6,.36,6-3.47v-30A13.29,13.29,0,0,0,69.39,224.48Z" />

            <ellipse class="cls-5" cx="-28.06" cy="31.93" rx="3.39" ry="5.87"
                transform="translate(30.8 178.81) rotate(-30)" />

            <ellipse class="cls-5" cx="-11.41" cy="41.85" rx="3.39" ry="5.87"
                transform="matrix(0.87, -0.5, 0.5, 0.87, 28.14, 188.73)" />

            <ellipse class="cls-5" cx="5.41" cy="51.77" rx="3.39" ry="5.87"
                transform="translate(25.49 198.65) rotate(-30)" />

        </g>
    </g>
</svg>