<?xml version="1.0" standalone="no"?>
<!DOCTYPE svg PUBLIC "-//W3C//DTD SVG 20010904//EN"
 "http://www.w3.org/TR/2001/REC-SVG-20010904/DTD/svg10.dtd">
<svg version="1.0" xmlns="http://www.w3.org/2000/svg"
 width="500.000000pt" height="500.000000pt" viewBox="0 0 500.000000 500.000000"
 preserveAspectRatio="xMidYMid meet">

<g transform="translate(0.000000,500.000000) scale(0.100000,-0.100000)"
fill="#000000" stroke="none">
<path d="M2005 4904 c-33 -8 -132 -50 -220 -93 -182 -89 -239 -135 -283 -229
l-27 -57 0 -525 0 -524 34 -23 c64 -43 135 -58 271 -57 86 0 138 5 165 16 l40
15 6 219 c4 120 7 344 8 497 1 340 3 347 83 347 173 -1 405 -84 619 -221 42
-27 85 -49 96 -49 20 0 20 2 7 38 -25 72 -13 302 17 302 4 0 12 -7 19 -15 15
-18 69 -19 155 -4 82 16 113 7 131 -36 11 -27 12 -45 4 -81 -16 -70 -3 -193
24 -224 l21 -25 -23 20 -23 19 3 -54 c3 -54 4 -55 63 -97 38 -28 68 -42 82
-39 12 1 20 -1 17 -5 -3 -5 1 -9 9 -9 25 0 126 -157 132 -204 1 -12 8 -41 15
-65 13 -40 12 -44 -7 -60 -20 -15 -20 -21 -11 -86 6 -38 8 -133 5 -210 -7
-188 -45 -318 -145 -495 -20 -36 -49 -94 -64 -129 l-28 -64 30 28 29 28 3 -69
3 -69 65 -32 c109 -54 262 -65 398 -27 l52 15 0 504 c0 552 -2 573 -60 721
-67 170 -196 359 -358 526 l-94 97 -2 89 c-1 81 -4 93 -30 131 -16 23 -50 54
-75 69 -42 25 -55 27 -146 27 -61 0 -109 -5 -122 -13 -20 -11 -33 -7 -110 32
-232 116 -423 167 -618 165 -55 0 -127 -7 -160 -15z m275 -144 c8 -5 11 -10 5
-10 -5 0 -17 5 -25 10 -8 5 -10 10 -5 10 6 0 17 -5 25 -10z m140 -50 c8 -5 11
-10 5 -10 -5 0 -17 5 -25 10 -8 5 -10 10 -5 10 6 0 17 -5 25 -10z m260 -136
c0 -2 -9 0 -20 6 -11 6 -20 13 -20 16 0 2 9 0 20 -6 11 -6 20 -13 20 -16z
m820 -889 c0 -5 -5 -3 -10 5 -5 8 -10 20 -10 25 0 6 5 3 10 -5 5 -8 10 -19 10
-25z m20 -50 c0 -5 -5 -3 -10 5 -5 8 -10 20 -10 25 0 6 5 3 10 -5 5 -8 10 -19
10 -25z m27 -117 c-3 -8 -6 -5 -6 6 -1 11 2 17 5 13 3 -3 4 -12 1 -19z"/>
<path d="M2577 3181 c-26 -15 -52 -32 -57 -37 -6 -6 90 -66 246 -157 l255
-147 47 26 c81 45 80 49 -11 49 -191 0 -350 103 -390 252 -13 51 -24 53 -90
14z"/>
<path d="M2060 2872 c-38 -37 -40 -42 -40 -100 0 -52 18 -211 46 -414 l7 -47
-39 14 c-82 29 -160 10 -190 -47 -35 -66 -13 -184 51 -274 19 -26 32 -50 30
-54 -8 -14 -205 -463 -205 -469 0 -3 17 -14 38 -23 20 -10 141 -68 267 -129
323 -155 370 -177 374 -174 1 2 -30 111 -69 242 -40 131 -80 262 -88 292 l-16
53 34 28 33 27 4 113 c2 74 -1 126 -9 149 -9 26 -13 121 -13 333 l0 296 72 23
73 22 -153 89 c-83 48 -155 88 -159 88 -4 0 -25 -17 -48 -38z"/>
<path d="M2640 2870 c0 -11 4 -20 9 -20 4 0 6 -11 3 -25 -2 -14 0 -25 7 -25 5
0 8 -7 5 -15 -4 -8 0 -23 7 -32 10 -12 10 -15 2 -9 -8 4 -13 1 -13 -9 0 -8 7
-18 15 -21 8 -4 15 -10 15 -16 0 -5 -4 -6 -10 -3 -15 10 -12 -21 4 -34 11 -9
17 -9 28 1 7 7 20 14 28 16 8 2 17 7 20 10 3 4 25 18 50 31 62 33 69 41 42 47
-12 4 -22 10 -22 15 0 5 -9 9 -20 9 -11 0 -20 4 -20 8 0 5 -17 17 -37 28 -21
10 -40 22 -43 25 -3 3 -20 14 -37 23 -32 16 -33 16 -33 -4z m55 -40 c-3 -5
-12 -10 -18 -10 -7 0 -6 4 3 10 19 12 23 12 15 0z m36 -28 c-7 -2 -18 1 -23 6
-8 8 -4 9 13 5 13 -4 18 -8 10 -11z m-4 -62 c-13 -22 -23 -25 -31 -11 -3 5 4
11 15 14 13 4 18 10 13 18 -4 8 -3 10 4 5 9 -5 8 -12 -1 -26z m77 22 c3 -5 -1
-9 -9 -9 -8 0 -12 4 -9 9 3 4 7 8 9 8 2 0 6 -4 9 -8z"/>
<path d="M2869 2690 c-96 -55 -181 -100 -189 -100 -8 0 -48 20 -89 44 -79 47
-88 48 -125 7 -19 -21 -19 -25 -2 -159 9 -75 24 -195 32 -267 8 -71 29 -213
46 -315 47 -273 52 -249 -64 -342 -53 -43 -99 -87 -103 -98 -3 -11 0 -32 7
-47 12 -25 19 -28 71 -31 41 -2 68 3 99 17 55 26 178 114 190 135 5 9 3 39 -6
78 -12 54 -13 109 -5 348 5 157 9 341 7 410 l-3 125 128 50 c99 38 126 53 122
65 -4 10 10 30 42 58 l48 42 -52 -26 c-75 -38 -118 -17 -50 24 38 24 95 82 81
82 -6 0 -89 -45 -185 -100z"/>
<path d="M3082 2650 c-18 -17 -29 -30 -24 -30 5 0 21 14 37 30 37 38 30 38
-13 0z"/>
</g>
</svg>
