<?xml version="1.0" standalone="no"?>
<!DOCTYPE svg PUBLIC "-//W3C//DTD SVG 20010904//EN"
 "http://www.w3.org/TR/2001/REC-SVG-20010904/DTD/svg10.dtd">
<svg version="1.0" xmlns="http://www.w3.org/2000/svg"
 width="500.000000pt" height="500.000000pt" viewBox="0 0 500.000000 500.000000"
 preserveAspectRatio="xMidYMid meet">

<g transform="translate(0.000000,500.000000) scale(0.100000,-0.100000)"
fill="#000000" stroke="none">
<path d="M3075 4479 c-91 -13 -264 -65 -383 -115 -296 -124 -577 -317 -761
-524 l-76 -85 693 -5 693 -5 19 -25 c18 -24 20 -45 20 -367 l0 -343 -512 0
c-345 0 -526 -4 -553 -11 -54 -15 -120 -82 -134 -137 -8 -30 -11 -208 -9 -610
3 -546 4 -568 23 -601 11 -19 37 -48 58 -65 l39 -31 541 -6 c298 -3 543 -6
545 -7 1 -1 2 -54 2 -118 l0 -116 78 7 c219 18 461 95 626 197 42 26 66 33
131 38 44 4 89 11 100 17 54 30 105 113 105 171 0 20 13 40 46 72 97 95 206
268 238 379 21 71 20 184 -1 247 -22 66 -115 158 -209 207 l-72 37 -4 97 c-3
86 -7 103 -31 139 -15 22 -46 51 -70 65 -40 23 -50 24 -267 27 -253 4 -232 -3
-304 92 -166 217 -204 444 -140 820 30 177 36 311 16 376 -6 22 -28 59 -48 82
-79 93 -216 127 -399 101z m550 -1604 c0 -5 -21 -11 -47 -13 -39 -3 -48 0 -48
13 0 13 9 16 48 13 26 -2 47 -7 47 -13z m105 -1 c0 -11 -9 -14 -37 -12 -52 4
-56 28 -4 28 30 0 41 -4 41 -16z m-1000 -99 c0 -33 -4 -45 -15 -45 -11 0 -15
12 -15 45 0 33 4 45 15 45 11 0 15 -12 15 -45z m-228 -52 c27 -26 37 -53 20
-53 -14 0 -73 66 -66 73 11 11 16 9 46 -20z m454 -21 c-19 -20 -39 -33 -42
-29 -10 10 57 78 69 70 5 -3 -7 -22 -27 -41z m-139 -87 c65 -39 93 -105 93
-221 0 -89 1 -92 24 -98 14 -3 28 -15 31 -26 6 -20 15 -20 459 -20 297 0 464
-4 484 -11 32 -11 62 -47 62 -74 0 -32 -30 -73 -61 -84 -22 -7 -179 -11 -485
-11 l-453 0 -6 -37 c-17 -102 -69 -178 -149 -214 -54 -24 -148 -25 -201 0 -52
23 -103 74 -126 126 -15 33 -19 66 -19 192 l0 153 24 6 c23 5 24 10 28 112 3
96 6 111 31 147 61 92 167 116 264 60z m-357 -95 c0 -5 -20 -10 -45 -10 -25 0
-45 5 -45 10 0 6 20 10 45 10 25 0 45 -4 45 -10z m610 0 c0 -5 -20 -10 -45
-10 -25 0 -45 5 -45 10 0 6 20 10 45 10 25 0 45 -4 45 -10z m560 -800 c0 -23
-90 -26 -98 -2 -2 8 11 12 47 12 28 0 51 -4 51 -10z m88 -2 c-3 -7 -13 -13
-23 -13 -10 0 -20 6 -22 13 -3 7 5 12 22 12 17 0 25 -5 23 -12z m190 0 c-3 -8
-21 -13 -43 -13 -22 0 -40 5 -42 13 -3 8 9 12 42 12 33 0 45 -4 43 -12z"/>
<path d="M2649 2565 c-48 -26 -62 -61 -67 -167 l-5 -98 132 0 131 0 0 95 c0
109 -13 146 -60 170 -36 19 -97 19 -131 0z"/>
<path d="M3175 2186 c-27 -20 -15 -51 20 -51 23 0 31 5 33 22 4 29 -28 47 -53
29z"/>
<path d="M3325 2186 c-27 -20 -15 -51 20 -51 23 0 31 5 33 22 4 29 -28 47 -53
29z"/>
<path d="M3477 2192 c-13 -3 -17 -11 -15 -30 2 -21 9 -28 29 -30 28 -3 43 16
33 42 -7 17 -23 24 -47 18z"/>
<path d="M3623 2193 c-7 -2 -13 -18 -13 -34 0 -26 4 -29 30 -29 26 0 30 3 30
29 0 17 -6 31 -16 35 -9 3 -16 6 -17 5 -1 0 -8 -3 -14 -6z"/>
<path d="M2676 2169 c-32 -25 -35 -68 -6 -94 14 -13 20 -31 20 -61 0 -25 5
-44 13 -47 25 -9 37 6 37 48 0 29 6 47 20 60 20 18 26 60 12 81 -8 13 -46 34
-60 34 -5 0 -21 -9 -36 -21z"/>
<path d="M1310 1570 c-155 -4 -201 -8 -225 -21 -51 -29 -84 -77 -95 -139 l-5
-35 -220 -3 c-239 -3 -259 1 -300 50 l-25 30 0 -82 c0 -90 13 -126 57 -156 25
-17 52 -19 276 -22 l247 -3 25 -25 c53 -53 68 -55 452 -55 355 0 356 0 402 23
113 58 147 240 69 359 -43 64 -90 77 -288 81 -96 2 -263 1 -370 -2z m-37 -76
c38 -28 60 -73 60 -118 0 -85 -59 -146 -142 -146 -148 0 -200 193 -72 269 44
26 115 24 154 -5z m312 -69 c0 -18 -8 -20 -70 -23 -76 -2 -102 7 -92 32 6 14
20 16 84 14 70 -3 78 -5 78 -23z m162 9 c8 -21 -14 -34 -57 -34 -43 0 -65 13
-57 34 5 12 20 16 57 16 37 0 52 -4 57 -16z m-59 -106 c3 -16 -8 -18 -132 -18
-107 0 -136 3 -136 13 0 25 14 28 139 25 111 -3 126 -5 129 -20z"/>
<path d="M3921 1275 c-156 -34 -394 -121 -560 -205 l-81 -40 0 -175 0 -175 68
0 c158 0 356 61 492 153 121 81 241 210 294 314 32 65 34 106 4 127 -28 20
-127 20 -217 1z"/>
</g>
</svg>
